<svg width="66" height="66" viewBox="0 0 66 66" fill="none" xmlns="http://www.w3.org/2000/svg">
<mask id="mask0_86_126" style="mask-type:alpha" maskUnits="userSpaceOnUse" x="6" y="6" width="54" height="54">
<path d="M24.75 8.25H11C10.2707 8.25 9.57118 8.53973 9.05546 9.05546C8.53973 9.57118 8.25 10.2707 8.25 11V24.75C8.25 25.4793 8.53973 26.1788 9.05546 26.6945C9.57118 27.2103 10.2707 27.5 11 27.5H24.75C25.4793 27.5 26.1788 27.2103 26.6945 26.6945C27.2103 26.1788 27.5 25.4793 27.5 24.75V11C27.5 10.2707 27.2103 9.57118 26.6945 9.05546C26.1788 8.53973 25.4793 8.25 24.75 8.25V8.25ZM24.75 38.5H11C10.2707 38.5 9.57118 38.7897 9.05546 39.3055C8.53973 39.8212 8.25 40.5207 8.25 41.25V55C8.25 55.7293 8.53973 56.4288 9.05546 56.9445C9.57118 57.4603 10.2707 57.75 11 57.75H24.75C25.4793 57.75 26.1788 57.4603 26.6945 56.9445C27.2103 56.4288 27.5 55.7293 27.5 55V41.25C27.5 40.5207 27.2103 39.8212 26.6945 39.3055C26.1788 38.7897 25.4793 38.5 24.75 38.5ZM55 8.25H41.25C40.5207 8.25 39.8212 8.53973 39.3055 9.05546C38.7897 9.57118 38.5 10.2707 38.5 11V24.75C38.5 25.4793 38.7897 26.1788 39.3055 26.6945C39.8212 27.2103 40.5207 27.5 41.25 27.5H55C55.7293 27.5 56.4288 27.2103 56.9445 26.6945C57.4603 26.1788 57.75 25.4793 57.75 24.75V11C57.75 10.2707 57.4603 9.57118 56.9445 9.05546C56.4288 8.53973 55.7293 8.25 55 8.25V8.25ZM55 38.5H41.25C40.5207 38.5 39.8212 38.7897 39.3055 39.3055C38.7897 39.8212 38.5 40.5207 38.5 41.25V55C38.5 55.7293 38.7897 56.4288 39.3055 56.9445C39.8212 57.4603 40.5207 57.75 41.25 57.75H55C55.7293 57.75 56.4288 57.4603 56.9445 56.9445C57.4603 56.4288 57.75 55.7293 57.75 55V41.25C57.75 40.5207 57.4603 39.8212 56.9445 39.3055C56.4288 38.7897 55.7293 38.5 55 38.5Z" fill="#555555" stroke="white" stroke-width="4" stroke-linejoin="round"/>
</mask>
<g mask="url(#mask0_86_126)">
<path d="M0 0H66V66H0V0Z" fill="#F16567"/>
</g>
</svg>
