<svg width="67" height="67" viewBox="0 0 67 67" fill="none" xmlns="http://www.w3.org/2000/svg">
<path d="M63.3333 46.6666C63.3333 50.3483 60.1727 53.3333 56.2745 53.3333L10.3921 53.3333C6.4939 53.3333 3.33331 50.3483 3.33331 46.6666L3.33332 13.855C3.33332 10.1733 13.5527 3.33334 17.451 3.33334L53.848 3.33335C59.308 3.33335 63.3333 7.18834 63.3333 12.2917L63.3333 46.6666Z" fill="#A0041E"/>
<path d="M59.8037 53.3332C59.8037 57.0149 56.6432 59.9999 52.7449 59.9999L13.9214 59.9999C10.0231 59.9999 6.86255 57.0149 6.86255 53.3332L6.86256 13.3333C6.86256 6.46831 6.8255 6.66664 15.6861 6.66664L52.7449 6.66665C56.6432 6.66665 59.8038 9.65164 59.8038 13.3333L59.8037 53.3332Z" fill="#CCD6DD"/>
<path d="M56.2745 55C56.2745 57.7616 53.9045 59.9999 50.9804 59.9999L8.62743 59.9999C5.70331 59.9999 3.33331 57.7616 3.33331 54.9999L3.33332 15C3.33332 12.2384 5.70332 10 8.62744 10L50.9804 10C53.9045 10 56.2745 12.2384 56.2745 15L56.2745 55Z" fill="#E1E8ED"/>
<path d="M56.2741 56.6667C56.2741 60.3483 53.1135 63.3333 49.2153 63.3333L12.1565 63.3333C8.25824 63.3333 5.09766 60.3483 5.09766 56.6667L5.09766 20.0001C5.09766 16.3184 8.25825 13.3334 12.1565 13.3334L49.2153 13.3334C53.1136 13.3334 56.2741 16.3184 56.2741 20.0001L56.2741 56.6667Z" fill="#BE1931"/>
<path d="M52.7447 56.6667C52.7447 60.3483 49.5841 63.3333 45.6859 63.3333L12.1565 63.3333C8.25824 63.3333 5.09766 60.3483 5.09766 56.6667L5.09766 23.3334C5.09766 19.6517 8.25825 16.6667 12.1565 16.6667L46.2771 16.6667C50.1753 16.6667 52.7447 19.0934 52.7447 22.7751L52.7447 56.6667Z" fill="#DD2E44"/>
<path d="M12.1569 13.3334C9.17979 13.3334 9.10215 10.1301 10.3921 8.75008C11.8604 7.18175 14.1421 6.66675 18.2239 6.66676L20.9804 6.66676L20.9804 3.33343L16.1821 3.33343C9.1798 3.33343 3.33332 7.50008 3.33332 12.2917L3.33331 56.6667C3.33331 60.3483 6.4939 63.3333 10.3921 63.3333L13.9216 63.3333L13.9216 13.3334L12.1569 13.3334Z" fill="#A0041E"/>
</svg>
