<svg width="67" height="67" viewBox="0 0 67 67" fill="none" xmlns="http://www.w3.org/2000/svg">
<path d="M38.0817 49.3663C37.4234 51.7592 33.9817 52.7868 30.3934 51.6614C26.805 50.5379 24.43 47.6898 25.0884 45.2952C25.7467 42.9023 29.19 41.8747 32.7767 43.0018C36.3667 44.1236 38.7417 46.9716 38.0817 49.3663ZM33.3334 5.90477C16.765 5.90476 3.33338 18.1857 3.33338 33.3324C3.33338 35.2293 3.54505 37.08 3.94505 38.8667C6.91004 44.3067 8.96171 40.872 18.3334 35.8729C27.8784 30.7813 18.3334 42.984 15 50.0952C13.975 52.2836 14.5317 54.1343 15.9334 55.649C20.8434 58.8561 26.84 60.7619 33.3334 60.7619C49.9034 60.7619 63.3334 48.4827 63.3334 33.3325C63.3334 18.1857 49.9034 5.90477 33.3334 5.90477Z" fill="#D99E82"/>
<path d="M24.9999 19.8733C24.9999 22.8191 22.7615 25.2067 19.9999 25.2067C17.2382 25.2067 14.9999 22.8191 14.9999 19.8733C14.9999 16.9275 17.2382 14.54 19.9999 14.54C22.7615 14.54 24.9999 16.9275 24.9999 19.8733Z" fill="#5C913B"/>
<path d="M41.6666 16.317C41.6666 19.2628 39.4266 21.6503 36.6666 21.6503C33.905 21.6503 31.6666 19.2628 31.6666 16.317C31.6666 13.3712 33.905 10.9836 36.6666 10.9836C39.4266 10.9836 41.6666 13.3712 41.6666 16.317Z" fill="#226699"/>
<path d="M56.6666 26.9836C56.6666 29.9294 54.4266 32.317 51.6666 32.317C48.9066 32.317 46.6666 29.9294 46.6666 26.9836C46.6666 24.0378 48.9066 21.6502 51.6666 21.6502C54.4266 21.6502 56.6666 24.0378 56.6666 26.9836Z" fill="#DD2E44"/>
<path d="M54.9999 42.9843C54.9999 45.9283 52.7599 48.3177 49.9999 48.3177C47.2399 48.3177 44.9999 45.9283 44.9999 42.9843C44.9999 40.0403 47.2399 37.651 49.9999 37.651C52.7599 37.651 54.9999 40.0403 54.9999 42.9843Z" fill="#FFCC4D"/>
</svg>
