<svg width="67" height="67" viewBox="0 0 67 67" fill="none" xmlns="http://www.w3.org/2000/svg">
<path d="M22.6667 8.78786C19.7214 8.78786 17.3334 11.2298 17.3334 14.2424L17.3334 25.1515C17.3334 28.164 19.7214 30.606 22.6667 30.606L44 30.606C46.9454 30.606 49.3334 28.164 49.3334 25.1515L49.3334 14.2424C49.3334 11.2298 46.9454 8.78786 44 8.78786L22.6667 8.78786Z" fill="#55ACEE"/>
<path fill-rule="evenodd" clip-rule="evenodd" d="M14.6667 3.33331C11.7212 3.33331 9.33337 5.77539 9.33337 8.78786L9.33336 57.8788C9.33336 60.8913 11.7212 63.3333 14.6667 63.3333L52 63.3333C54.9456 63.3333 57.3334 60.8913 57.3334 57.8788L57.3334 8.78787C57.3334 5.7754 54.9456 3.33332 52 3.33332L14.6667 3.33331ZM17.3334 14.2424C17.3334 11.2298 19.7214 8.78786 22.6667 8.78786L44 8.78786C46.9454 8.78786 49.3334 11.2298 49.3334 14.2424L49.3334 25.1515C49.3334 28.164 46.9454 30.606 44 30.606L22.6667 30.606C19.7214 30.606 17.3334 28.164 17.3334 25.1515L17.3334 14.2424ZM26.6667 53.7879C25.194 53.7879 24 52.5666 24 51.0606L24 48.3333L21.3334 48.3333C19.8607 48.3333 18.6667 47.112 18.6667 45.606C18.6667 44.1 19.8607 42.8788 21.3334 42.8788L24 42.8788L24 40.1515C24 38.6455 25.194 37.4242 26.6667 37.4242C28.1392 37.4242 29.3334 38.6455 29.3334 40.1515L29.3334 42.8788L32 42.8788C33.4726 42.8788 34.6667 44.1 34.6667 45.606C34.6667 47.112 33.4726 48.3333 32 48.3333L29.3334 48.3333L29.3334 51.0606C29.3334 52.5666 28.1392 53.7879 26.6667 53.7879ZM46.6667 44.2424C48.1392 44.2424 49.3334 43.0211 49.3334 41.5151C49.3334 40.0091 48.1392 38.7879 46.6667 38.7879C45.1942 38.7879 44 40.0091 44 41.5151C44 43.0211 45.1942 44.2424 46.6667 44.2424ZM41.3334 52.4242C42.8059 52.4242 44 51.203 44 49.697C44 48.191 42.8059 46.9697 41.3334 46.9697C39.8608 46.9697 38.6667 48.191 38.6667 49.697C38.6667 51.203 39.8608 52.4242 41.3334 52.4242Z" fill="#D1D1D1"/>
<path d="M24 51.0606C24 52.5666 25.194 53.7879 26.6667 53.7879C28.1392 53.7879 29.3334 52.5666 29.3334 51.0606L29.3334 48.3333L32 48.3333C33.4726 48.3333 34.6667 47.112 34.6667 45.606C34.6667 44.1 33.4726 42.8788 32 42.8788L29.3334 42.8788L29.3334 40.1515C29.3334 38.6455 28.1392 37.4242 26.6667 37.4242C25.194 37.4242 24 38.6455 24 40.1515L24 42.8788L21.3334 42.8788C19.8607 42.8788 18.6667 44.1 18.6667 45.606C18.6667 47.112 19.8607 48.3333 21.3334 48.3333L24 48.3333L24 51.0606Z" fill="#66757F"/>
<path d="M49.3334 41.5151C49.3334 43.0211 48.1392 44.2424 46.6667 44.2424C45.1942 44.2424 44 43.0211 44 41.5151C44 40.0091 45.1942 38.7879 46.6667 38.7879C48.1392 38.7879 49.3334 40.0091 49.3334 41.5151Z" fill="#DD2E44"/>
<path d="M44 49.697C44 51.203 42.8059 52.4242 41.3334 52.4242C39.8608 52.4242 38.6667 51.203 38.6667 49.697C38.6667 48.191 39.8608 46.9697 41.3334 46.9697C42.8059 46.9697 44 48.191 44 49.697Z" fill="#DD2E44"/>
</svg>
