<svg width="67" height="67" viewBox="0 0 67 67" fill="none" xmlns="http://www.w3.org/2000/svg">
<path d="M8.63224 41.4053C8.63224 41.583 8.20845 41.7266 7.36087 41.836C6.52696 41.9453 5.69305 42 4.85914 42C4.02523 42 3.49208 41.9522 3.25968 41.8565C3.02728 41.7608 2.91107 41.6104 2.91107 41.4053V28.8147C2.91107 28.4729 3.30069 28.1585 4.07992 27.8714C4.87281 27.5843 5.76824 27.4408 6.7662 27.4408C7.12164 27.4408 7.38821 27.4544 7.56593 27.4818C8.03074 27.5501 8.35883 27.844 8.55022 28.3635L10.5188 33.6541H10.6008V28.8147C10.6008 28.4729 10.9904 28.1585 11.7697 27.8714C12.5489 27.5843 13.4375 27.4408 14.4354 27.4408C15.2967 27.4408 15.8435 27.6048 16.0759 27.9329C16.24 28.1653 16.322 28.3772 16.322 28.5686V41.4053C16.322 41.583 15.8982 41.7266 15.0506 41.836C14.2167 41.9453 13.2939 42 12.2823 42C11.2844 42 10.7375 41.8701 10.6418 41.6104L8.73477 36.5659H8.63224V41.4053Z" fill="#2FBFC4"/>
<path d="M28.3667 42H19.6722C19.0023 42 18.5512 41.9522 18.3188 41.8565C18.0864 41.7608 17.9702 41.6104 17.9702 41.4053V28.425C17.9702 28.0696 18.1274 27.8167 18.4418 27.6663C18.7699 27.5159 19.3509 27.4408 20.1848 27.4408H28.4282C28.7153 27.4408 28.8588 27.9192 28.8588 28.8762C28.8588 29.8194 28.7973 30.544 28.6743 31.0498C28.5512 31.5419 28.3872 31.788 28.1821 31.788C27.2935 31.788 25.7966 31.6992 23.6913 31.5214V32.8953C25.7146 32.8133 27.0338 32.7723 27.649 32.7723C28.0181 32.7723 28.2026 33.2029 28.2026 34.0642C28.2026 34.9254 28.1275 35.5816 27.9771 36.0328C27.8404 36.4702 27.649 36.689 27.4029 36.689L23.6913 36.6069V37.9193C26.07 37.7416 27.7105 37.6527 28.6128 37.6527C28.8998 37.6527 29.0434 38.1312 29.0434 39.0882C29.0434 40.0451 28.9819 40.7696 28.8588 41.2618C28.7358 41.7539 28.5718 42 28.3667 42Z" fill="#FFCE32"/>
<path d="M36.1252 42C35.469 42 35.0383 41.9522 34.8333 41.8565C34.6282 41.7608 34.4847 41.5967 34.4027 41.3643L29.8708 28.8557C29.8708 28.5959 30.3561 28.2952 31.3268 27.9534C32.311 27.6116 33.3022 27.4408 34.3001 27.4408C35.5852 27.4408 36.2687 27.844 36.3507 28.6506L37.0479 35.151H37.335L37.9092 28.6506C37.9775 27.844 38.9003 27.4408 40.6775 27.4408C41.361 27.4408 41.819 27.5364 42.0514 27.7278C42.2838 27.9056 42.4137 28.1448 42.441 28.4455L43.1177 35.151H43.4048L43.9379 28.6506C43.979 28.2542 44.4438 27.9534 45.3323 27.7483C46.2346 27.5433 47.1232 27.4408 47.9981 27.4408C48.8867 27.4408 49.4882 27.5706 49.8027 27.8304C50.1307 28.0901 50.2948 28.3635 50.2948 28.6506L45.9065 41.3643C45.7561 41.7881 44.7445 42 42.8716 42C42.3111 42 41.9352 41.9522 41.7438 41.8565C41.5524 41.7608 41.4225 41.5967 41.3542 41.3643L40.2879 37.7963H40.0418L38.955 41.3643C38.832 41.7881 37.8887 42 36.1252 42Z" fill="#2799D0"/>
<path d="M61.7499 41.1387C61.3398 41.4395 60.7657 41.6924 60.0274 41.8975C59.3029 42.0889 58.3596 42.1846 57.1976 42.1846C56.0493 42.1846 54.9556 42.0889 53.9167 41.8975C52.8777 41.7061 52.1326 41.4942 51.6815 41.2618C51.2304 41.0294 51.0048 40.8038 51.0048 40.5851C51.0048 39.8195 51.1142 39.0266 51.3329 38.2064C51.5516 37.3725 51.8114 36.9555 52.1121 36.9555C52.1668 36.9555 52.7342 37.1401 53.8141 37.5092C54.8941 37.8783 55.7075 38.0629 56.2543 38.0629C56.8012 38.0629 57.1566 38.0082 57.3207 37.8988C57.4847 37.7758 57.5667 37.6049 57.5667 37.3862C57.5667 37.1674 57.4164 36.976 57.1156 36.812C56.8148 36.6343 56.4389 36.4839 55.9878 36.3609C55.5366 36.2241 55.0445 36.0328 54.5113 35.7867C53.9919 35.5406 53.5065 35.2672 53.0554 34.9664C52.6043 34.6657 52.2283 34.2419 51.9276 33.6951C51.6268 33.1346 51.4765 32.4989 51.4765 31.788C51.4765 28.7531 53.2878 27.2357 56.9105 27.2357C58.2639 27.2357 59.4328 27.3246 60.4171 27.5023C61.4013 27.6663 62.0917 27.8577 62.4882 28.0764C62.8983 28.2815 63.1033 28.4866 63.1033 28.6916C63.1033 29.4025 62.9325 30.168 62.5907 30.9883C62.2626 31.8085 61.9413 32.2186 61.6269 32.2186C61.5722 32.2186 61.3945 32.1571 61.0938 32.0341C60.1915 31.6376 59.4396 31.4394 58.8381 31.4394C58.2503 31.4394 57.847 31.4941 57.6282 31.6035C57.4232 31.7128 57.3207 31.8837 57.3207 32.1161C57.3207 32.3348 57.471 32.5194 57.7718 32.6698C58.0725 32.8065 58.4417 32.9364 58.8791 33.0594C59.3302 33.1688 59.8156 33.3465 60.335 33.5925C60.8682 33.8249 61.3603 34.1052 61.8115 34.4333C62.2626 34.7477 62.6385 35.1988 62.9393 35.7867C63.2401 36.3745 63.3904 37.0581 63.3904 37.8373C63.3904 38.6575 63.1785 39.4026 62.7547 40.0724C62.495 40.4826 62.1601 40.838 61.7499 41.1387Z" fill="#F16567"/>
</svg>
