<svg width="42" height="44" viewBox="0 0 42 44" fill="none" xmlns="http://www.w3.org/2000/svg">
<path d="M21.0081 27.9906C19.5262 27.9906 18.1385 27.4202 17.0879 26.3776C16.0421 25.3351 15.4623 23.9582 15.4623 22.4878C15.4623 21.0174 16.0421 19.6405 17.0879 18.5979C18.1385 17.5603 19.5262 16.9849 21.0081 16.9849C22.4899 16.9849 23.8776 17.5603 24.9283 18.5979C25.974 19.6405 26.5538 21.0174 26.5538 22.4878C26.5538 23.9582 25.974 25.3351 24.9283 26.3776C24.4151 26.8908 23.8043 27.2976 23.1313 27.5745C22.4583 27.8514 21.7366 27.9928 21.0081 27.9906V27.9906ZM41.4417 16.4096L38.2004 19.1585C38.3541 20.0929 38.4334 21.0469 38.4334 21.996C38.4334 22.9451 38.3541 23.9041 38.2004 24.8335L41.4417 27.5825C41.6865 27.7904 41.8618 28.0675 41.9441 28.3767C42.0264 28.6859 42.0119 29.0126 41.9026 29.3135L41.858 29.4413C40.966 31.9164 39.6294 34.2107 37.913 36.2129L37.8238 36.3162C37.6154 36.5594 37.3376 36.7342 37.027 36.8176C36.7165 36.9009 36.3878 36.889 36.0842 36.7834L32.0599 35.3622C30.5731 36.5719 28.9178 37.5259 27.1238 38.1898L26.3457 42.3649C26.287 42.6794 26.1332 42.9688 25.9048 43.1945C25.6764 43.4202 25.3842 43.5717 25.067 43.6287L24.9332 43.6533C22.3561 44.1156 19.6402 44.1156 17.0631 43.6533L16.9293 43.6287C16.6121 43.5717 16.3199 43.4202 16.0915 43.1945C15.8631 42.9688 15.7093 42.6794 15.6506 42.3649L14.8676 38.1701C13.0905 37.501 11.435 36.5493 9.96608 35.3523L5.91207 36.7834C5.60859 36.8899 5.27964 36.9022 4.96892 36.8188C4.6582 36.7353 4.38043 36.56 4.17251 36.3162L4.08331 36.2129C2.36998 34.2085 1.03374 31.9149 0.138328 29.4413L0.0937234 29.3135C-0.129297 28.6988 0.0540755 28.0103 0.554632 27.5825L3.83551 24.804C3.68187 23.8795 3.60753 22.9353 3.60753 22.0009C3.60753 21.0567 3.68187 20.1126 3.83551 19.1979L0.564544 16.4194C0.319696 16.2114 0.144455 15.9344 0.0621237 15.6252C-0.0202077 15.316 -0.00572895 14.9892 0.103635 14.6884L0.148239 14.5605C1.04528 12.087 2.36853 9.80026 4.09322 7.78895L4.18243 7.68568C4.39085 7.44251 4.66863 7.26771 4.97916 7.18431C5.2897 7.10092 5.61841 7.11284 5.92198 7.2185L9.976 8.64954C11.4529 7.44471 13.0983 6.49069 14.8775 5.83173L15.6605 1.63698C15.7192 1.32246 15.873 1.03311 16.1014 0.807363C16.3298 0.581621 16.622 0.430175 16.9392 0.373147L17.073 0.348559C19.6755 -0.116186 22.3407 -0.116186 24.9431 0.348559L25.0769 0.373147C25.3941 0.430175 25.6863 0.581621 25.9147 0.807363C26.1431 1.03311 26.2969 1.32246 26.3556 1.63698L27.1337 5.81206C28.9278 6.48086 30.5831 7.42996 32.0699 8.6397L36.0941 7.2185C36.3976 7.112 36.7266 7.09965 37.0373 7.1831C37.348 7.26654 37.6258 7.44183 37.8337 7.68568L37.9229 7.78895C39.6476 9.8101 40.9708 12.087 41.8679 14.5605L41.9125 14.6884C42.1256 15.2982 41.9422 15.9817 41.4417 16.4096ZM21.0081 13.8426C16.1958 13.8426 12.2954 17.7127 12.2954 22.4878C12.2954 27.2628 16.1958 31.133 21.0081 31.133C25.8203 31.133 29.7207 27.2628 29.7207 22.4878C29.7207 17.7127 25.8203 13.8426 21.0081 13.8426Z" fill="white"/>
</svg>
