<svg width="67" height="67" viewBox="0 0 67 67" fill="none" xmlns="http://www.w3.org/2000/svg">
<path d="M63.3333 56.2944C63.3333 56.2944 63.3333 63.3335 56.2745 63.3335L10.3921 63.3335C3.33331 63.3335 3.33331 56.2944 3.33331 56.2944L3.33332 22.8586C3.33332 15.8195 10.3921 15.8195 10.3921 15.8195L56.2745 15.8195C56.2745 15.8195 63.3333 15.8195 63.3333 22.8586L63.3333 56.2944Z" fill="#414042"/>
<path d="M39.1621 20.0252C39.8521 20.7133 39.8521 21.8255 39.1621 22.5136C38.4721 23.2016 37.3568 23.2016 36.6668 22.5136L20.4457 6.33768C19.7557 5.64961 19.7557 4.53567 20.4457 3.84936C21.1357 3.16128 22.251 3.16128 22.941 3.84936L39.1621 20.0252Z" fill="#414042"/>
<path d="M27.5044 20.0252C26.8144 20.7133 26.8144 21.8255 27.5044 22.5135C28.1944 23.2016 29.3097 23.2016 29.9997 22.5135L46.2209 6.33768C46.9109 5.64961 46.9109 4.53567 46.2209 3.84936C45.5309 3.16129 44.4156 3.16129 43.7256 3.84936L27.5044 20.0252Z" fill="#414042"/>
<path d="M33.3333 21.0989C47.4509 21.0989 50.9803 22.8587 52.745 24.6185C54.5097 26.3782 56.2744 29.8978 56.2744 38.6967C56.2744 47.4956 54.5097 51.0151 52.745 52.7749C50.9803 54.5347 47.4509 56.2944 33.3333 56.2944C19.2156 56.2944 15.6862 54.5347 13.9215 52.7749C12.1568 51.0151 10.3921 47.4956 10.3921 38.6967C10.3921 29.8978 12.1568 26.3782 13.9215 24.6185C15.6862 22.8587 19.2156 21.0989 33.3333 21.0989Z" fill="#354551"/>
<path d="M54.5099 57.1742C54.5099 55.7153 55.6941 54.5345 57.157 54.5345C58.6199 54.5345 59.8041 55.7153 59.8041 57.1742C59.8041 58.633 58.6199 59.8138 57.157 59.8138C55.6941 59.8138 54.5099 58.633 54.5099 57.1742Z" fill="#66757F"/>
<path d="M6.86285 57.1741C6.86285 55.7153 8.04697 54.5345 9.50991 54.5345C10.9729 54.5345 12.157 55.7153 12.157 57.1741C12.157 58.633 10.9729 59.8138 9.50991 59.8138C8.04697 59.8138 6.86285 58.633 6.86285 57.1741Z" fill="#66757F"/>
<path d="M42.4948 36.0751C44.4869 37.068 44.4869 39.9019 42.4948 40.8948L26.9166 48.6595C25.1196 49.5552 23.0052 48.2526 23.0052 46.2497L23.0052 30.7202C23.0052 28.7173 25.1196 27.4147 26.9166 28.3104L42.4948 36.0751Z" fill="white"/>
</svg>
