<svg width="100" height="106" viewBox="0 0 100 106" fill="none" xmlns="http://www.w3.org/2000/svg">
<g filter="url(#filter0_d_86_119)">
<circle cx="50" cy="50" r="50" fill="#ECECEC"/>
<circle cx="50" cy="50" r="47.5" stroke="white" stroke-width="5"/>
</g>
<path d="M25.6322 58.4053C25.6322 58.583 25.2085 58.7266 24.3609 58.836C23.527 58.9453 22.6931 59 21.8591 59C21.0252 59 20.4921 58.9522 20.2597 58.8565C20.0273 58.7608 19.9111 58.6104 19.9111 58.4053V45.8147C19.9111 45.4729 20.3007 45.1585 21.0799 44.8714C21.8728 44.5843 22.7682 44.4408 23.7662 44.4408C24.1216 44.4408 24.3882 44.4544 24.5659 44.4818C25.0307 44.5501 25.3588 44.844 25.5502 45.3635L27.5188 50.6541H27.6008V45.8147C27.6008 45.4729 27.9904 45.1585 28.7697 44.8714C29.5489 44.5843 30.4375 44.4408 31.4354 44.4408C32.2967 44.4408 32.8435 44.6048 33.0759 44.9329C33.24 45.1653 33.322 45.3772 33.322 45.5686V58.4053C33.322 58.583 32.8982 58.7266 32.0506 58.836C31.2167 58.9453 30.2939 59 29.2823 59C28.2844 59 27.7375 58.8701 27.6418 58.6104L25.7348 53.5659H25.6322V58.4053Z" fill="#2FBFC4"/>
<path d="M45.3667 59H36.6722C36.0023 59 35.5512 58.9522 35.3188 58.8565C35.0864 58.7608 34.9702 58.6104 34.9702 58.4053V45.425C34.9702 45.0696 35.1274 44.8167 35.4418 44.6663C35.7699 44.5159 36.3509 44.4408 37.1848 44.4408H45.4282C45.7153 44.4408 45.8588 44.9192 45.8588 45.8762C45.8588 46.8194 45.7973 47.544 45.6743 48.0498C45.5512 48.5419 45.3872 48.788 45.1821 48.788C44.2935 48.788 42.7966 48.6992 40.6913 48.5214V49.8953C42.7146 49.8133 44.0338 49.7723 44.649 49.7723C45.0181 49.7723 45.2026 50.2029 45.2026 51.0642C45.2026 51.9254 45.1275 52.5816 44.9771 53.0328C44.8404 53.4702 44.649 53.689 44.4029 53.689L40.6913 53.6069V54.9193C43.07 54.7416 44.7105 54.6527 45.6128 54.6527C45.8998 54.6527 46.0434 55.1312 46.0434 56.0882C46.0434 57.0451 45.9819 57.7696 45.8588 58.2618C45.7358 58.7539 45.5718 59 45.3667 59Z" fill="#FFCE32"/>
<path d="M53.1252 59C52.469 59 52.0383 58.9522 51.8333 58.8565C51.6282 58.7608 51.4847 58.5967 51.4027 58.3643L46.8708 45.8557C46.8708 45.5959 47.3561 45.2952 48.3268 44.9534C49.311 44.6116 50.3022 44.4408 51.3001 44.4408C52.5852 44.4408 53.2687 44.844 53.3507 45.6506L54.0479 52.151H54.335L54.9092 45.6506C54.9775 44.844 55.9003 44.4408 57.6775 44.4408C58.361 44.4408 58.819 44.5364 59.0514 44.7278C59.2838 44.9056 59.4137 45.1448 59.441 45.4455L60.1177 52.151H60.4048L60.9379 45.6506C60.979 45.2542 61.4438 44.9534 62.3323 44.7483C63.2346 44.5433 64.1232 44.4408 64.9981 44.4408C65.8867 44.4408 66.4882 44.5706 66.8027 44.8304C67.1307 45.0901 67.2948 45.3635 67.2948 45.6506L62.9065 58.3643C62.7561 58.7881 61.7445 59 59.8716 59C59.3111 59 58.9352 58.9522 58.7438 58.8565C58.5524 58.7608 58.4225 58.5967 58.3542 58.3643L57.2879 54.7963H57.0418L55.955 58.3643C55.832 58.7881 54.8887 59 53.1252 59Z" fill="#2799D0"/>
<path d="M78.7499 58.1387C78.3398 58.4395 77.7657 58.6924 77.0274 58.8975C76.3029 59.0889 75.3596 59.1846 74.1976 59.1846C73.0493 59.1846 71.9556 59.0889 70.9167 58.8975C69.8777 58.7061 69.1326 58.4942 68.6815 58.2618C68.2304 58.0294 68.0048 57.8038 68.0048 57.5851C68.0048 56.8195 68.1142 56.0266 68.3329 55.2064C68.5516 54.3725 68.8114 53.9555 69.1121 53.9555C69.1668 53.9555 69.7342 54.1401 70.8141 54.5092C71.8941 54.8783 72.7075 55.0629 73.2543 55.0629C73.8012 55.0629 74.1566 55.0082 74.3207 54.8988C74.4847 54.7758 74.5667 54.6049 74.5667 54.3862C74.5667 54.1674 74.4164 53.976 74.1156 53.812C73.8148 53.6343 73.4389 53.4839 72.9878 53.3609C72.5366 53.2241 72.0445 53.0328 71.5113 52.7867C70.9919 52.5406 70.5065 52.2672 70.0554 51.9664C69.6043 51.6657 69.2283 51.2419 68.9276 50.6951C68.6268 50.1346 68.4765 49.4989 68.4765 48.788C68.4765 45.7531 70.2878 44.2357 73.9105 44.2357C75.2639 44.2357 76.4328 44.3246 77.4171 44.5023C78.4013 44.6663 79.0917 44.8577 79.4882 45.0764C79.8983 45.2815 80.1033 45.4866 80.1033 45.6916C80.1033 46.4025 79.9325 47.168 79.5907 47.9883C79.2626 48.8085 78.9413 49.2186 78.6269 49.2186C78.5722 49.2186 78.3945 49.1571 78.0938 49.0341C77.1915 48.6376 76.4396 48.4394 75.8381 48.4394C75.2503 48.4394 74.847 48.4941 74.6282 48.6035C74.4232 48.7128 74.3207 48.8837 74.3207 49.1161C74.3207 49.3348 74.471 49.5194 74.7718 49.6698C75.0725 49.8065 75.4417 49.9364 75.8791 50.0594C76.3302 50.1688 76.8156 50.3465 77.335 50.5925C77.8682 50.8249 78.3603 51.1052 78.8115 51.4333C79.2626 51.7477 79.6385 52.1988 79.9393 52.7867C80.2401 53.3745 80.3904 54.0581 80.3904 54.8373C80.3904 55.6575 80.1785 56.4026 79.7547 57.0724C79.495 57.4826 79.1601 57.838 78.7499 58.1387Z" fill="#F16567"/>
<defs>
<filter id="filter0_d_86_119" x="0" y="0" width="100" height="106" filterUnits="userSpaceOnUse" color-interpolation-filters="sRGB">
<feFlood flood-opacity="0" result="BackgroundImageFix"/>
<feColorMatrix in="SourceAlpha" type="matrix" values="0 0 0 0 0 0 0 0 0 0 0 0 0 0 0 0 0 0 127 0" result="hardAlpha"/>
<feOffset dy="6"/>
<feComposite in2="hardAlpha" operator="out"/>
<feColorMatrix type="matrix" values="0 0 0 0 0.8 0 0 0 0 0.8 0 0 0 0 0.8 0 0 0 1 0"/>
<feBlend mode="normal" in2="BackgroundImageFix" result="effect1_dropShadow_86_119"/>
<feBlend mode="normal" in="SourceGraphic" in2="effect1_dropShadow_86_119" result="shape"/>
</filter>
</defs>
</svg>
